#define cpu_width 18
#define cpu_height 16
static char cpu_bits[] = {
  0xFF, 0xFF, 0x03, 0xFF, 0xFF, 0x03, 0xFF, 0xFF, 0x03, 0xDF, 0xFF, 0x03, 
  0x6B, 0xFE, 0x03, 0xFF, 0xFD, 0x03, 0x5B, 0xFF, 0x03, 0xAF, 0xFD, 0x03, 
  0x5F, 0xFF, 0x03, 0xBB, 0xFD, 0x03, 0xFB, 0xFB, 0x03, 0x97, 0xFD, 0x03, 
  0xBF, 0xFB, 0x03, 0xFF, 0xFF, 0x03, 0xFF, 0xFF, 0x03, 0xFF, 0xFF, 0x03, 
  };
