#define left_width 9
#define left_height 16
static unsigned char left_bits[] = {
   0x00, 0x00, 0x00, 0x00, 0x38, 0x00, 0x08, 0x00, 0x08, 0x00, 0x08, 0x00,
   0x08, 0x00, 0x08, 0x00, 0x08, 0x00, 0x08, 0x00, 0x08, 0x00, 0x08, 0x00,
   0x08, 0x00, 0x38, 0x00, 0x00, 0x00, 0x00, 0x00 };
