#define right_width 9
#define right_height 16
static unsigned char right_bits[] = {
   0x00, 0x00, 0x00, 0x00, 0x38, 0x00, 0x20, 0x00, 0x20, 0x00, 0x20, 0x00,
   0x20, 0x00, 0x20, 0x00, 0x20, 0x00, 0x20, 0x00, 0x20, 0x00, 0x20, 0x00,
   0x20, 0x00, 0x38, 0x00, 0x00, 0x00, 0x00, 0x00 };
