#define spacer_width 18
#define spacer_height 16
static unsigned char spacer_bits[] = {
   0x00, 0x00, 0x00, 0x00, 0x00, 0x00, 0x70, 0x38, 0x00, 0x40, 0x08, 0x00,
   0x40, 0x08, 0x00, 0x40, 0x08, 0x00, 0x40, 0x08, 0x00, 0x40, 0x08, 0x00,
   0x40, 0x08, 0x00, 0x40, 0x08, 0x00, 0x40, 0x08, 0x00, 0x40, 0x08, 0x00,
   0x40, 0x08, 0x00, 0x70, 0x38, 0x00, 0x00, 0x00, 0x00, 0x00, 0x00, 0x00 };
