#define cpu_width 10
#define cpu_height 10
static unsigned char cpu_bits[] = {
   0x00, 0x00, 0xb6, 0x01, 0x02, 0x01, 0x78, 0x00, 0x7a, 0x01, 0x7a, 0x01,
   0x78, 0x00, 0x02, 0x01, 0xb6, 0x01, 0x00, 0x00 };
